<svg width="80" height="80" viewBox="0 0 80 80" fill="none" xmlns="http://www.w3.org/2000/svg">
<path d="M71.8119 21.66C73.3352 27.6 73.3352 40 73.3352 40C73.3352 40 73.3352 52.4 71.8119 58.34C70.9652 61.6234 68.4886 64.2067 65.3519 65.08C59.6552 66.6667 40.0019 66.6667 40.0019 66.6667C40.0019 66.6667 20.3586 66.6667 14.6519 65.08C11.5019 64.1934 9.02856 61.6134 8.19189 58.34C6.66856 52.4 6.66856 40 6.66856 40C6.66856 40 6.66856 27.6 8.19189 21.66C9.03856 18.3767 11.5152 15.7934 14.6519 14.92C20.3586 13.3334 40.0019 13.3334 40.0019 13.3334C40.0019 13.3334 59.6552 13.3334 65.3519 14.92C68.5019 15.8067 70.9752 18.3867 71.8119 21.66V21.66ZM33.3352 51.6667L53.3352 40L33.3352 28.3334V51.6667Z" fill="#733CA8"/>
</svg>
