<?xml version="1.0" encoding="UTF-8" standalone="no"?>
<svg
   width="59"
   height="59"
   viewBox="0 0 59 59"
   fill="none"
   version="1.1"
   id="svg558"
   sodipodi:docname="mdifacebook.svg"
   inkscape:version="1.2 (dc2aeda, 2022-05-15)"
   xmlns:inkscape="http://www.inkscape.org/namespaces/inkscape"
   xmlns:sodipodi="http://sodipodi.sourceforge.net/DTD/sodipodi-0.dtd"
   xmlns="http://www.w3.org/2000/svg"
   xmlns:svg="http://www.w3.org/2000/svg">
  <defs
     id="defs562" />
  <sodipodi:namedview
     id="namedview560"
     pagecolor="#ffffff"
     bordercolor="#666666"
     borderopacity="1.0"
     inkscape:showpageshadow="2"
     inkscape:pageopacity="0.0"
     inkscape:pagecheckerboard="0"
     inkscape:deskcolor="#d1d1d1"
     showgrid="false"
     inkscape:zoom="3.3714286"
     inkscape:cx="35"
     inkscape:cy="35"
     inkscape:window-width="1309"
     inkscape:window-height="456"
     inkscape:window-x="0"
     inkscape:window-y="25"
     inkscape:window-maximized="0"
     inkscape:current-layer="svg558" />
  <path
     d="M 29.16668,0 C 13.12498,0 0,13.09585 0,29.22505 c 0,14.5833 10.67498,26.6874 24.61668,28.8749 v -20.4166 h -7.4083 v -8.4583 h 7.4083 v -6.4459 c 0,-7.3208 4.3458,-11.3458 11.025,-11.3458 3.1792,0 6.5042,0.5542 6.5042,0.5542 v 7.2041 h -3.675 c -3.6167,0 -4.7542,2.2459 -4.7542,4.55 v 5.4834 h 8.1083 l -1.3125,8.4583 h -6.7958 v 20.4166 c 6.8729,-1.0854 13.1314,-4.5922 17.6456,-9.8873 4.5142,-5.2951 6.9867,-12.0295 6.9711,-18.9876 C 58.33338,13.09585 45.20838,0 29.16668,0 Z"
     fill="#733ca8"
     id="path556" />
</svg>
