<svg width="70" height="70" viewBox="0 0 70 70" fill="none" xmlns="http://www.w3.org/2000/svg">
<path d="M35.0019 5.94995C18.9602 5.94995 5.83522 19.0458 5.83522 35.175C5.83522 49.7583 16.5102 61.8624 30.4519 64.0499V43.6333H23.0436V35.175H30.4519V28.7291C30.4519 21.4083 34.7977 17.3833 41.4769 17.3833C44.6561 17.3833 47.9811 17.9375 47.9811 17.9375V25.1416H44.3061C40.6894 25.1416 39.5519 27.3875 39.5519 29.6916V35.175H47.6602L46.3477 43.6333H39.5519V64.0499C46.4248 62.9645 52.6833 59.4577 57.1975 54.1626C61.7117 48.8675 64.1842 42.1331 64.1686 35.175C64.1686 19.0458 51.0436 5.94995 35.0019 5.94995V5.94995Z" fill="#733CA8"/>
</svg>
