<?xml version="1.0" encoding="UTF-8" standalone="no"?>
<svg
   width="62"
   height="62"
   viewBox="0 0 62 62"
   fill="none"
   version="1.1"
   id="svg428"
   sodipodi:docname="phinstagramlogofill.svg"
   inkscape:version="1.2 (dc2aeda, 2022-05-15)"
   xmlns:inkscape="http://www.inkscape.org/namespaces/inkscape"
   xmlns:sodipodi="http://sodipodi.sourceforge.net/DTD/sodipodi-0.dtd"
   xmlns="http://www.w3.org/2000/svg"
   xmlns:svg="http://www.w3.org/2000/svg">
  <sodipodi:namedview
     id="namedview430"
     pagecolor="#ffffff"
     bordercolor="#666666"
     borderopacity="1.0"
     inkscape:showpageshadow="2"
     inkscape:pageopacity="0.0"
     inkscape:pagecheckerboard="0"
     inkscape:deskcolor="#d1d1d1"
     showgrid="false"
     inkscape:zoom="3.3714286"
     inkscape:cx="35"
     inkscape:cy="35"
     inkscape:window-width="1309"
     inkscape:window-height="456"
     inkscape:window-x="0"
     inkscape:window-y="25"
     inkscape:window-maximized="0"
     inkscape:current-layer="svg428" />
  <g
     clip-path="url(#clip0_1_73)"
     id="g421"
     transform="translate(-7.65814,-7.65625)">
    <path
       d="m 48.9081,38.9062 c 0,1.9779 -0.5864,3.9113 -1.6853,5.5558 -1.0988,1.6444 -2.6606,2.9262 -4.4878,3.683 -1.8273,0.7569 -3.838,0.955 -5.7778,0.5691 -1.9398,-0.3858 -3.7216,-1.3383 -5.1201,-2.7368 -1.3986,-1.3985 -2.351,-3.1803 -2.7368,-5.1201 -0.3859,-1.9399 -0.1878,-3.9505 0.569,-5.7778 0.7569,-1.8272 2.0386,-3.389 3.6831,-4.4878 1.6445,-1.0989 3.5779,-1.6854 5.5557,-1.6854 2.6497,0.0083 5.1884,1.0645 7.062,2.9381 1.8736,1.8736 2.9298,4.4123 2.938,7.0619 z m 21.25,-13.75 v 27.5 c 0,4.6413 -1.8437,9.0925 -5.1256,12.3744 -3.2819,3.2819 -7.7331,5.1256 -12.3744,5.1256 h -27.5 c -4.6412,0 -9.0924,-1.8437 -12.3743,-5.1256 C 9.50189,61.7487 7.65814,57.2975 7.65814,52.6562 v -27.5 c 0,-4.6412 1.84375,-9.0924 5.12566,-12.3743 3.2819,-3.28191 7.7331,-5.12565 12.3743,-5.12565 h 27.5 c 4.6413,0 9.0925,1.84374 12.3744,5.12565 3.2819,3.2819 5.1256,7.7331 5.1256,12.3743 z m -16.25,13.75 c 0,-2.9667 -0.8797,-5.8668 -2.5279,-8.3335 -1.6482,-2.4667 -3.9909,-4.3893 -6.7318,-5.5246 -2.7409,-1.1354 -5.7569,-1.4324 -8.6666,-0.8536 -2.9097,0.5788 -5.5825,2.0074 -7.6803,4.1051 -2.0977,2.0978 -3.5264,4.7706 -4.1051,7.6803 -0.5788,2.9097 -0.2818,5.9257 0.8536,8.6666 1.1353,2.7409 3.0579,5.0836 5.5246,6.7318 2.4667,1.6482 5.3668,2.5279 8.3335,2.5279 3.9783,0 7.7936,-1.5803 10.6066,-4.3933 2.8131,-2.8131 4.3934,-6.6284 4.3934,-10.6067 z m 5,-16.25 c 0,-0.7416 -0.2199,-1.4667 -0.6319,-2.0833 -0.4121,-0.6167 -0.9978,-1.0974 -1.683,-1.3812 -0.6852,-0.2838 -1.4392,-0.3581 -2.1666,-0.2134 -0.7275,0.1447 -1.3957,0.5019 -1.9201,1.0263 -0.5245,0.5244 -0.8816,1.1926 -1.0263,1.9201 -0.1447,0.7274 -0.0704,1.4814 0.2134,2.1666 0.2838,0.6852 0.7645,1.2709 1.3812,1.683 0.6166,0.412 1.3417,0.6319 2.0833,0.6319 0.9946,0 1.9484,-0.395 2.6517,-1.0983 0.7033,-0.7033 1.0983,-1.6571 1.0983,-2.6517 z"
       fill="#733ca8"
       id="path419" />
  </g>
  <defs
     id="defs426">
    <clipPath
       id="clip0_1_73">
      <rect
         width="70"
         height="70"
         fill="#ffffff"
         transform="translate(0.00189209)"
         id="rect423"
         x="0"
         y="0" />
    </clipPath>
  </defs>
</svg>
