<?xml version="1.0" encoding="UTF-8" standalone="no"?>
<svg
   width="67"
   height="67"
   viewBox="0 0 67 67"
   fill="none"
   version="1.1"
   id="svg134"
   sodipodi:docname="riyoutubefill.svg"
   inkscape:version="1.2 (dc2aeda, 2022-05-15)"
   xmlns:inkscape="http://www.inkscape.org/namespaces/inkscape"
   xmlns:sodipodi="http://sodipodi.sourceforge.net/DTD/sodipodi-0.dtd"
   xmlns="http://www.w3.org/2000/svg"
   xmlns:svg="http://www.w3.org/2000/svg">
  <defs
     id="defs138" />
  <sodipodi:namedview
     id="namedview136"
     pagecolor="#ffffff"
     bordercolor="#666666"
     borderopacity="1.0"
     inkscape:showpageshadow="2"
     inkscape:pageopacity="0.0"
     inkscape:pagecheckerboard="0"
     inkscape:deskcolor="#d1d1d1"
     showgrid="false"
     inkscape:zoom="2.95"
     inkscape:cx="40.508475"
     inkscape:cy="67.79661"
     inkscape:window-width="1656"
     inkscape:window-height="912"
     inkscape:window-x="0"
     inkscape:window-y="25"
     inkscape:window-maximized="0"
     inkscape:current-layer="svg134" />
  <path
     d="m 65.14334,14.3266 c 1.5233,5.94 1.5233,18.34 1.5233,18.34 0,0 0,12.4 -1.5233,18.34 -0.8467,3.2834 -3.3233,5.8667 -6.46,6.74 -5.6967,1.5867 -25.35,1.5867 -25.35,1.5867 0,0 -19.6433,0 -25.35,-1.5867 C 4.83334,56.86 2.36,54.28 1.52333,51.0066 0,45.0666 0,32.6666 0,32.6666 c 0,0 0,-12.4 1.52333,-18.34 C 2.37,11.0433 4.84664,8.46 7.98334,7.5866 13.69004,6 33.33334,6 33.33334,6 c 0,0 19.6533,0 25.35,1.5866 3.15,0.8867 5.6233,3.4667 6.46,6.74 z m -38.4767,30.0067 20,-11.6667 -20,-11.6666 z"
     fill="#733ca8"
     id="path132" />
</svg>
