<svg width="70" height="70" viewBox="0 0 70 70" fill="none" xmlns="http://www.w3.org/2000/svg">
<path d="M59.7061 5.83329H10.2977C9.74233 5.82558 9.19085 5.92735 8.67479 6.13279C8.15873 6.33823 7.68819 6.64331 7.29005 7.03062C6.89191 7.41793 6.57396 7.87987 6.35437 8.39007C6.13477 8.90027 6.01783 9.44873 6.01022 10.0041V59.9958C6.01783 60.5512 6.13477 61.0996 6.35437 61.6098C6.57396 62.12 6.89191 62.582 7.29005 62.9693C7.68819 63.3566 8.15873 63.6617 8.67479 63.8671C9.19085 64.0726 9.74233 64.1743 10.2977 64.1666H59.7061C60.2615 64.1743 60.8129 64.0726 61.329 63.8671C61.8451 63.6617 62.3156 63.3566 62.7137 62.9693C63.1119 62.582 63.4298 62.12 63.6494 61.6098C63.869 61.0996 63.986 60.5512 63.9936 59.9958V10.0041C63.986 9.44873 63.869 8.90027 63.6494 8.39007C63.4298 7.87987 63.1119 7.41793 62.7137 7.03062C62.3156 6.64331 61.8451 6.33823 61.329 6.13279C60.8129 5.92735 60.2615 5.82558 59.7061 5.83329V5.83329ZM23.5977 54.6583H14.8477V28.4083H23.5977V54.6583ZM19.2227 24.7333C18.016 24.7333 16.8587 24.2539 16.0054 23.4006C15.1521 22.5473 14.6727 21.39 14.6727 20.1833C14.6727 18.9766 15.1521 17.8192 16.0054 16.966C16.8587 16.1127 18.016 15.6333 19.2227 15.6333C19.8635 15.5606 20.5124 15.6241 21.1269 15.8196C21.7415 16.0151 22.3078 16.3382 22.7888 16.7678C23.2698 17.1973 23.6547 17.7236 23.9182 18.3122C24.1817 18.9008 24.3179 19.5384 24.3179 20.1833C24.3179 20.8282 24.1817 21.4658 23.9182 22.0544C23.6547 22.643 23.2698 23.1693 22.7888 23.5988C22.3078 24.0284 21.7415 24.3515 21.1269 24.547C20.5124 24.7425 19.8635 24.806 19.2227 24.7333V24.7333ZM55.1561 54.6583H46.4061V40.5708C46.4061 37.0416 45.1519 34.7375 41.9727 34.7375C40.9888 34.7447 40.0308 35.0533 39.2277 35.6217C38.4245 36.1902 37.815 36.9911 37.4811 37.9166C37.2528 38.6022 37.1539 39.3241 37.1894 40.0458V54.6291H28.4394V28.3791H37.1894V32.0833C37.9843 30.704 39.1404 29.5677 40.5332 28.7968C41.926 28.0259 43.5027 27.6495 45.0936 27.7083C50.9269 27.7083 55.1561 31.4708 55.1561 39.55V54.6583Z" fill="#733CA8"/>
</svg>
