<?xml version="1.0" encoding="UTF-8" standalone="no"?>
<svg
   width="59"
   height="59"
   viewBox="0 0 58.999999 59"
   fill="none"
   version="1.1"
   id="svg687"
   sodipodi:docname="uillinkedin.svg"
   inkscape:version="1.2 (dc2aeda, 2022-05-15)"
   xmlns:inkscape="http://www.inkscape.org/namespaces/inkscape"
   xmlns:sodipodi="http://sodipodi.sourceforge.net/DTD/sodipodi-0.dtd"
   xmlns="http://www.w3.org/2000/svg"
   xmlns:svg="http://www.w3.org/2000/svg">
  <defs
     id="defs691" />
  <sodipodi:namedview
     id="namedview689"
     pagecolor="#ffffff"
     bordercolor="#666666"
     borderopacity="1.0"
     inkscape:showpageshadow="2"
     inkscape:pageopacity="0.0"
     inkscape:pagecheckerboard="0"
     inkscape:deskcolor="#d1d1d1"
     showgrid="false"
     inkscape:zoom="3.3714286"
     inkscape:cx="35"
     inkscape:cy="35.29661"
     inkscape:window-width="1309"
     inkscape:window-height="456"
     inkscape:window-x="0"
     inkscape:window-y="25"
     inkscape:window-maximized="0"
     inkscape:current-layer="svg687" />
  <path
     d="M 53.69588,4.0747976e-4 H 4.28748 C 3.73211,-0.00730252 3.18063,0.09446748 2.66457,0.29990748 c -0.51606,0.20544 -0.9866,0.51052 -1.38474,0.89783002 -0.39814,0.38731 -0.71609,0.84925 -0.93568,1.35945 -0.2196,0.5102 -0.33654,1.05866 -0.34415,1.61403 V 54.162917 c 0.00761,0.5554 0.12455,1.1038 0.34415,1.614 0.21959,0.5102 0.53754,0.9722 0.93568,1.3595 0.39814,0.3873 0.86868,0.6924 1.38474,0.8978 0.51606,0.2055 1.06754,0.3072 1.62291,0.2995 h 49.4084 c 0.5554,0.0077 1.1068,-0.094 1.6229,-0.2995 0.5161,-0.2054 0.9866,-0.5105 1.3847,-0.8978 0.3982,-0.3873 0.7161,-0.8493 0.9357,-1.3595 0.2196,-0.5102 0.3366,-1.0586 0.3442,-1.614 V 4.1712175 c -0.0076,-0.55537 -0.1246,-1.10383 -0.3442,-1.61403 -0.2196,-0.5102 -0.5375,-0.97214 -0.9357,-1.35945 -0.3981,-0.38731002 -0.8686,-0.69239002 -1.3847,-0.89783002 -0.5161,-0.20544 -1.0675,-0.30721 -1.6229,-0.29950000024 z M 17.58748,48.825417 h -8.75 v -26.25 h 8.75 z m -4.375,-29.925 c -1.2067,0 -2.364,-0.4794 -3.2173,-1.3327 -0.8533,-0.8533 -1.3327,-2.0106 -1.3327,-3.2173 0,-1.2067 0.4794,-2.3641 1.3327,-3.2173 0.8533,-0.8533 2.0106,-1.3326995 3.2173,-1.3326995 0.6408,-0.0727 1.2897,-0.0092 1.9042,0.1863 0.6146,0.1954995 1.1809,0.5185995 1.6619,0.9481995 0.481,0.4295 0.8659,0.9558 1.1294,1.5444 0.2635,0.5886 0.3997,1.2262 0.3997,1.8711 0,0.6449 -0.1362,1.2825 -0.3997,1.8711 -0.2635,0.5886 -0.6484,1.1149 -1.1294,1.5444 -0.481,0.4296 -1.0473,0.7527 -1.6619,0.9482 -0.6145,0.1955 -1.2634,0.259 -1.9042,0.1863 z m 35.9334,29.925 h -8.75 v -14.0875 c 0,-3.5292 -1.2542,-5.8333 -4.4334,-5.8333 -0.9839,0.0072 -1.9419,0.3158 -2.745,0.8842 -0.8032,0.5685 -1.4127,1.3694 -1.7466,2.2949 -0.2283,0.6856 -0.3272,1.4075 -0.2917,2.1292 v 14.5833 h -8.75 v -26.25 h 8.75 v 3.7042 c 0.7949,-1.3793 1.951,-2.5156 3.3438,-3.2865 1.3928,-0.7709 2.9695,-1.1473 4.5604,-1.0885 5.8333,0 10.0625,3.7625 10.0625,11.8417 z"
     fill="#733ca8"
     id="path685" />
</svg>
